<mxfile host="app.diagrams.net" modified="2023-03-29T14:16:13.843Z" agent="Mozilla/5.0 (Macintosh; Intel Mac OS X 10_15_7) AppleWebKit/537.36 (KHTML, like Gecko) Chrome/111.0.0.0 Safari/537.36" version="21.1.2" etag="HbY92VzSg9TNZ-PlS9Ac" type="github">
  <diagram name="Page-1" id="p2_DBRNkkDcrcnT7XFD-">
    <mxGraphModel>
      <root>
        <mxCell id="0" />
        <mxCell id="1" parent="0" />
      </root>
    </mxGraphModel>
  </diagram>
</mxfile>
